<svg width="112" height="48" viewBox="0 0 112 48" fill="none" xmlns="http://www.w3.org/2000/svg">
<g clip-path="url(#clip0_363_123)">
<path d="M20.4589 6.86133C19.1464 8.42578 17.0464 9.65625 14.9464 9.48047C14.6839 7.37109 15.7164 5.12109 16.9239 3.75C18.2364 2.15039 20.5289 1.00781 22.4014 0.919922C22.6114 3.09961 21.7539 5.26172 20.4589 6.86133ZM22.3664 9.88477C19.3214 9.70898 16.7139 11.625 15.2789 11.625C13.8089 11.625 11.6039 9.97266 9.1889 10.0254C6.0564 10.0781 3.1514 11.8535 1.5589 14.6836C-1.7311 20.3613 0.701398 28.7461 3.8864 33.3691C5.4439 35.6543 7.2989 38.168 9.7489 38.0801C12.0764 37.9922 12.9864 36.5684 15.7864 36.5684C18.6039 36.5684 19.4264 38.0801 21.8764 38.0449C24.4139 37.9922 26.0064 35.7598 27.5639 33.4746C29.3314 30.873 30.0664 28.3594 30.1014 28.2188C30.0489 28.166 25.2014 26.3027 25.1489 20.6777C25.0964 15.9668 28.9814 13.7344 29.1564 13.5938C26.9689 10.3242 23.5564 9.97266 22.3664 9.88477ZM39.9364 3.52148V37.7812H45.2389V26.0742H52.5714C59.2739 26.0742 63.9639 21.4512 63.9639 14.7715C63.9639 8.0918 59.3439 3.52148 52.7464 3.52148H39.9364ZM45.2389 8.00391H51.3464C55.9489 8.00391 58.5739 10.4648 58.5739 14.7891C58.5739 19.1133 55.9489 21.6094 51.3289 21.6094H45.2389V8.00391ZM73.6239 38.0449C76.9489 38.0449 80.0289 36.3574 81.4289 33.668H81.5339V37.7812H86.4339V20.7305C86.4339 15.791 82.4964 12.5918 76.4414 12.5918C70.8239 12.5918 66.6589 15.8262 66.5014 20.2559H71.2789C71.6814 18.1465 73.6239 16.7578 76.2839 16.7578C79.5214 16.7578 81.3414 18.2695 81.3414 21.0645V22.9629L74.7264 23.3672C68.5839 23.7363 65.2589 26.2676 65.2589 30.6621C65.2764 35.0918 68.7064 38.0449 73.6239 38.0449ZM75.0589 33.9844C72.2414 33.9844 70.4389 32.6133 70.4389 30.5391C70.4389 28.377 72.1714 27.1289 75.4789 26.9355L81.3589 26.5664V28.5C81.3589 31.6992 78.6464 33.9844 75.0589 33.9844ZM92.9964 47.0977C98.1589 47.0977 100.591 45.1113 102.709 39.1172L112.001 12.9258H106.611L100.381 33.1582H100.276L94.0464 12.9258H88.5164L97.4764 37.8691L96.9864 39.3809C96.1814 41.9473 94.8689 42.9492 92.5239 42.9492C92.1039 42.9492 91.2989 42.8965 90.9664 42.8613V46.9746C91.2814 47.0449 92.5939 47.0977 92.9964 47.0977Z" fill="white"/>
</g>
<defs>
<clipPath id="clip0_363_123">
<rect width="112" height="48" fill="white"/>
</clipPath>
</defs>
</svg>
