<svg width="916" height="530" viewBox="0 0 916 530" fill="none" xmlns="http://www.w3.org/2000/svg">
<path d="M622.138 528.826V485.546H652.681V490.925H628.32V523.447H653.546V528.826H622.138ZM627.764 509.474V504.218H650.022V509.474H627.764Z" fill="#ffffff"></path>
<path d="M528.683 528.826V485.546H533.753L562.379 521.097H559.72V485.546H565.903V528.826H560.833L532.207 493.275H534.865V528.826H528.683Z" fill="#ffffff"></path>
<path d="M466.263 528.826V485.546H472.446V528.826H466.263Z" fill="#ffffff"></path>
<path d="M386.273 528.826V485.546H392.456V523.447H415.889V528.826H386.273Z" fill="#ffffff"></path>
<path d="M292.818 528.826V485.546H297.888L326.515 521.097H323.856V485.546H330.039V528.826H324.969L296.343 493.275H299.001V528.826H292.818Z" fill="#ffffff"></path>
<path d="M217.151 529.32C213.853 529.32 210.782 528.764 207.938 527.651C205.135 526.538 202.704 524.992 200.643 523.014C198.582 520.994 196.974 518.645 195.82 515.966C194.666 513.286 194.089 510.36 194.089 507.186C194.089 504.012 194.666 501.086 195.82 498.406C196.974 495.727 198.582 493.398 200.643 491.42C202.704 489.4 205.135 487.834 207.938 486.721C210.741 485.608 213.812 485.052 217.151 485.052C220.448 485.052 223.478 485.608 226.239 486.721C229.042 487.793 231.474 489.338 233.535 491.358C235.637 493.336 237.245 495.665 238.358 498.345C239.512 501.024 240.089 503.971 240.089 507.186C240.089 510.401 239.512 513.348 238.358 516.027C237.245 518.707 235.637 521.056 233.535 523.076C231.474 525.054 229.042 526.6 226.239 527.713C223.478 528.785 220.448 529.32 217.151 529.32ZM217.151 523.818C219.541 523.818 221.747 523.406 223.766 522.581C225.827 521.757 227.6 520.603 229.084 519.119C230.609 517.594 231.783 515.821 232.608 513.802C233.473 511.782 233.906 509.577 233.906 507.186C233.906 504.795 233.473 502.59 232.608 500.57C231.783 498.551 230.609 496.799 229.084 495.315C227.6 493.79 225.827 492.615 223.766 491.791C221.747 490.966 219.541 490.554 217.151 490.554C214.719 490.554 212.472 490.966 210.411 491.791C208.392 492.615 206.619 493.79 205.094 495.315C203.569 496.799 202.374 498.551 201.508 500.57C200.684 502.59 200.272 504.795 200.272 507.186C200.272 509.577 200.684 511.782 201.508 513.802C202.374 515.821 203.569 517.594 205.094 519.119C206.619 520.603 208.392 521.757 210.411 522.581C212.472 523.406 214.719 523.818 217.151 523.818Z" fill="#ffffff"></path>
<path d="M131.723 502.992C134.607 502.993 136.945 505.33 136.945 508.214C136.945 511.098 134.607 513.435 131.723 513.436H5.22171C2.33784 513.436 0 511.098 0 508.214C6.45905e-05 505.33 2.33788 502.992 5.22171 502.992H131.723ZM905.084 256.718C905.084 253.834 907.422 251.497 910.306 251.496C913.19 251.496 915.528 253.834 915.528 256.718V473.436C915.528 495.527 897.619 513.436 875.528 513.436H710.015C707.131 513.436 704.793 511.098 704.793 508.214C704.793 505.33 707.131 502.992 710.015 502.992H865.084C887.176 502.992 905.084 485.084 905.084 462.992V256.718ZM0 69.978V40C0 17.9086 17.9086 0 40 0H697.965C700.849 0 703.187 2.33784 703.187 5.22171C703.187 8.10558 700.849 10.4434 697.965 10.4434H50.4434C28.352 10.4434 10.4434 28.352 10.4434 50.4434V69.978C10.4434 72.8619 8.10558 75.1997 5.22171 75.1997C2.33784 75.1997 0 72.8619 0 69.978Z" fill="#ADEE68"></path>
<path d="M136.953 255.638C136.953 275.594 141.402 293.123 150.301 308.225C159.47 323.327 171.336 335.058 185.899 343.418C200.731 351.508 216.776 355.553 234.036 355.553C247.519 355.553 259.655 353.8 270.442 350.294C281.229 346.789 290.937 342.069 299.567 336.136C308.466 329.934 316.152 323.057 322.624 315.506V372.138C310.758 381.846 297.948 389.262 284.195 394.386C270.442 399.51 253.182 402.072 232.417 402.072C211.652 402.072 192.236 398.566 174.168 391.555C156.369 384.543 140.863 374.43 127.649 361.216C114.435 348.002 104.052 332.496 96.5013 314.697C89.2201 296.629 85.5795 276.943 85.5795 255.638C85.5795 234.334 89.2201 214.783 96.5013 196.984C104.052 178.916 114.435 163.275 127.649 150.061C140.863 136.847 156.369 126.734 174.168 119.722C192.236 112.711 211.652 109.205 232.417 109.205C253.182 109.205 270.442 111.767 284.195 116.891C297.948 122.015 310.758 129.431 322.624 139.139V195.771C316.152 188.22 308.466 181.478 299.567 175.545C290.937 169.342 281.229 164.488 270.442 160.983C259.655 157.477 247.519 155.724 234.036 155.724C216.776 155.724 200.731 159.904 185.899 168.264C171.336 176.354 159.47 187.95 150.301 203.052C141.402 217.884 136.953 235.413 136.953 255.638ZM508.055 289.617V249.166H644.375C644.915 269.931 642.218 289.617 636.285 308.225C630.352 326.563 621.453 342.878 609.587 357.171C597.722 371.464 582.89 382.79 565.091 391.15C547.562 399.24 527.606 403.285 505.223 403.285C483.919 403.285 464.233 399.78 446.164 392.768C428.096 385.487 412.32 375.239 398.836 362.025C385.622 348.811 375.375 333.17 368.093 315.102C360.812 297.034 357.172 277.212 357.172 255.638C357.172 234.064 360.812 214.378 368.093 196.58C375.644 178.511 386.027 163.005 399.241 150.061C412.725 136.847 428.501 126.734 446.569 119.722C464.907 112.711 484.728 109.205 506.032 109.205C524.64 109.205 541.494 111.767 556.596 116.891C571.698 121.745 585.182 128.891 597.047 138.33C609.183 147.499 619.43 158.69 627.79 171.904L588.957 197.793C581.137 184.309 570.215 173.522 556.192 165.432C542.438 157.342 525.718 153.297 506.032 153.297C487.694 153.297 471.109 157.612 456.277 166.241C441.445 174.601 429.579 186.467 420.68 201.838C411.781 216.94 407.331 234.873 407.331 255.638C407.331 276.134 411.646 294.202 420.276 309.843C429.175 325.215 441.041 337.215 455.873 345.845C470.705 354.474 487.425 358.789 506.032 358.789C518.707 358.789 530.033 357.036 540.011 353.53C549.989 350.025 558.619 345.036 565.9 338.563C573.181 332.091 579.249 324.675 584.103 316.315C588.957 307.955 592.598 299.056 595.025 289.617H508.055ZM644.676 158.151V114.059H842.078V158.151H767.243V397.218H719.106V158.151H644.676Z" fill="#ffffff"></path>
</svg>