<svg width="1106" height="595" viewBox="0 0 1106 595" fill="none" xmlns="http://www.w3.org/2000/svg">
<path d="M588.114 124.039C596.424 123.148 612.737 123.642 621.039 124.497C672.264 129.774 710.897 150.725 743.469 189.913C727.659 203.191 711.729 217.808 696.354 231.659C682.824 211.033 662.627 195.672 639.137 188.139C607.134 178.143 572.469 181.256 542.761 196.795C515.749 210.631 495.508 234.838 486.667 263.876C476.227 296.613 479.208 332.155 494.955 362.695C509.056 389.68 533.417 409.856 562.554 418.679C590.349 427.218 627.339 426.162 653.124 411.923C681.084 396.482 695.191 374.827 704.154 345.098L612.091 345.124L612.076 313.303V292.952C661.884 292.043 716.244 292.478 766.239 292.901C766.569 341.945 759.136 388.28 726.924 427.016C667.344 498.647 548.716 497.592 480.384 440.74C444.195 410.931 421.607 367.74 417.764 321.006C410.566 239.95 452.472 167.772 528.482 137.234C548.791 129.075 566.417 125.913 588.114 124.039Z" fill="#04264F"/>
<path d="M248.248 124.04C253.413 123.393 266.179 123.544 271.544 123.865C312.638 126.333 344.547 138.829 377.059 163.223C377.142 190.239 377.08 217.257 376.874 244.273C352.465 215.667 327.712 193.719 290.049 185.438C257.455 178.21 223.325 184.214 195.151 202.131C139.615 238.024 126.472 317.807 161.916 372.039C178.949 397.614 205.461 415.354 235.595 421.342C274.003 429.313 309.038 419.464 341.213 398.284C357.105 386.431 363.607 379.481 377.005 365.079L377.045 441.855C349.273 464.101 315.593 477.719 280.168 481.026C230.044 485.704 180.118 473.326 141.045 440.841C104.896 410.782 82.3341 367.46 78.4221 320.603C72.7153 256.407 99.1558 194.945 151.989 157.516C182.425 135.955 211.572 127.274 248.248 124.04Z" fill="#04264F"/>
<path d="M781.256 130.238L1042.68 130.307L1042.78 189.706L941.568 189.794L941.441 373.922L941.523 475.46L879.078 475.432L879.191 189.767L781.263 189.736L781.256 130.238Z" fill="#04264F"/>
<path d="M1096.33 368.906C1099.22 368.661 1101.09 368.674 1103.46 370.313C1105.64 373.26 1105.26 377.697 1105.26 381.392L1105.17 488.49C1105.18 500.778 1105.96 536.956 1104 546.562C1102.29 554.574 1098.28 561.91 1092.47 567.672C1087.18 572.998 1080.42 576.614 1073.07 578.062C1062.94 580.02 1027.39 579.247 1015.49 579.24L903.483 579.202C899.538 579.277 897.071 578.639 895.443 574.821C895.488 572.871 895.203 572.323 896.463 570.695C898.466 568.062 901.886 567.552 905.006 567.612C917.006 567.867 929.013 567.829 941.013 567.844L1029.29 567.889C1039.2 567.889 1049.27 567.844 1059.15 567.859C1100.25 567.919 1093.99 531.128 1093.97 501.989L1093.98 418.322C1093.94 403.628 1093.35 388.743 1094.04 374.07C1094.15 371.854 1094.97 370.594 1096.33 368.906Z" fill="#92E807"/>
<path d="M35.8427 13.6051C44.125 13.0004 58.2955 13.4415 66.907 13.4415L127.088 13.4506L186.164 13.5203C197.004 13.4588 207.87 13.1347 218.7 13.3373C222.147 13.5391 228.722 14.44 228.831 18.9126C228.904 21.9104 226.466 24.6778 223.432 24.7791C217.95 24.9629 212.417 24.8706 206.925 24.8668L172.173 24.8338C129.68 24.7873 80.5517 23.7221 38.4137 25.0896C31.669 25.8796 25.3682 28.8556 20.4722 33.5622C10.1297 43.4534 11.335 56.8831 11.287 70.0324C11.1647 103.386 11.521 136.751 11.3702 170.102C11.3537 173.714 11.362 177.921 8.6057 180.479C4.3622 181.435 0.190708 177.876 0.198208 174.134C0.480208 133.379 -0.571284 92.1988 0.474217 51.4166C0.995467 31.1001 17.3905 17.7746 35.8427 13.6051Z" fill="#92E807"/>
<path d="M296.83 548.327C309.405 545.453 321.951 553.231 324.969 565.773C327.987 578.324 320.353 590.957 307.848 594.123C299.629 596.201 290.928 593.703 285.066 587.574C279.204 581.453 277.085 572.645 279.52 564.521C281.954 556.404 288.566 550.215 296.83 548.327ZM312.822 558.505C309.27 555.519 304.628 554.161 300.026 554.761C291.011 555.939 284.631 564.169 285.733 573.193C286.837 582.218 295.01 588.669 304.043 587.642C312.68 586.651 319.085 579.157 318.711 570.47C318.511 565.834 316.374 561.491 312.822 558.505Z" fill="#04264F"/>
<path d="M872.455 20.9351C886.72 20.356 903.49 20.7626 917.898 20.7611L1002.6 20.7401C1019.22 20.7213 1035.84 20.6748 1052.46 20.7198C1056.15 20.7296 1060.04 19.9396 1062.08 23.2382C1062.17 25.8878 1061.9 26.2247 1060.47 28.491C1044.42 28.8 1028.19 28.524 1012.12 28.5472C966.813 28.614 921.505 28.5127 876.198 28.5487C873.648 28.5502 872.973 28.0273 871.345 26.2622C870.873 23.6643 871.188 23.4325 872.455 20.9351Z" fill="#92E807"/>
<path d="M54.2446 568.039C111.196 566.727 169.061 568.715 226.105 568.062C228.343 568.032 229.11 568.902 230.417 570.455C230.813 573.118 230.329 573.643 228.969 576.029L102.371 576.179C87.7231 576.179 70.2151 576.404 55.4454 575.856C53.6491 575.789 52.9996 574.303 52.2871 573.066C52.3861 570.462 52.6764 570.155 54.2446 568.039Z" fill="#92E807"/>
<path d="M748.659 0.035015L789.039 0.0200195L789.107 9.82567C779.259 9.69889 769.247 9.79415 759.384 9.79415L759.399 22.2067L785.679 22.2442L785.657 31.5697L761.146 31.593L759.811 32.2419C759.024 35.0258 759.339 41.1886 759.369 44.3521L789.661 44.3814L789.692 53.8412L748.584 53.9229L748.659 0.035015Z" fill="#04264F"/>
<path d="M319.312 0.0358887L359.713 0.0388878L359.799 9.76201L330.029 9.76352L330.004 23.1363L356.817 23.2075L356.654 33.119L330.088 33.1775L330.045 53.836L319.318 53.9276L319.312 0.0358887Z" fill="#04264F"/>
<path d="M397.307 548.303C398.345 548.27 399.404 548.215 400.441 548.272C408.25 548.701 424.093 575.113 429.925 581.79L430.446 582.383C430.622 571.475 430.153 559.997 430.598 549.187C432.587 548.15 433.834 548.662 436.363 548.835C438.659 551.408 437.745 587.964 437.774 594.071C429.093 594.401 429.764 593.148 424.418 586.209C417.656 577.439 411.034 568.534 404.374 559.69C404.44 564.768 405.103 590.387 404.287 593.26L403.054 593.898C400.807 593.801 399.062 594.153 397.624 592.953C396.551 583.921 397.27 558.527 397.307 548.303Z" fill="#04264F"/>
<path d="M697.367 548.273C700.487 548.237 703.254 547.637 705.317 550.08C713.882 560.245 721.862 571.588 730.089 582.03C730.284 572.375 730.127 562.886 729.999 553.238C729.977 551.16 730.704 550.042 732.174 548.668C734.739 547.808 733.877 547.683 736.044 548.442C738.264 552.165 737.274 587.416 737.259 594.123C736.067 594.153 731.364 594.371 730.727 593.666C721.592 583.583 712.749 570.965 704.454 560.222C704.559 565.061 704.957 591.52 703.989 593.733C701.424 594.213 701.072 594.003 698.447 593.425C696.309 590.755 697.352 554.093 697.367 548.273Z" fill="#04264F"/>
<path d="M812.724 548.358C817.944 548.309 843.819 547.216 846.017 549.847C845.904 552.503 846.242 551.498 844.787 553.681C840.279 556.404 826.142 555.136 819.969 555.091L819.827 567.619C825.714 567.589 837.197 567.071 842.402 568.204C843.474 570.117 843.152 570.755 842.859 573.073C839.717 575.308 826.412 574.491 821.732 574.423L820.299 575.008C819.459 578.167 819.864 583.868 819.954 587.349C825.827 587.319 841.764 586.239 845.769 588.894C846.249 590.672 846.039 591.25 845.769 593.035C842.912 595.001 817.569 594.153 812.552 594.161C812.514 578.894 812.574 563.628 812.724 548.358Z" fill="#04264F"/>
<path d="M600.468 0L611.276 0.00299908L611.246 44.3433L636.656 44.3703V53.8339C624.648 53.9652 612.438 53.8489 600.408 53.8347L600.468 0Z" fill="#04264F"/>
<path d="M472.781 0.0186008L483.578 0.0170898L483.582 53.8787L472.725 53.9447L472.781 0.0186008Z" fill="#04264F"/>
<path d="M513.078 548.303C515.904 548.234 517.166 547.998 519.824 549.015C520.945 552.946 520.427 581.768 520.406 587.289C527.707 587.439 536.139 585.886 542.147 588.242C543.767 590.65 543.219 590.822 543.189 594.108L513.053 594.093L513.078 548.303Z" fill="#04264F"/>
<path d="M614.372 548.379C617.034 548.293 617.994 548.339 620.627 548.709C622.599 550.808 621.714 588.287 621.692 594.101C621.257 594.116 620.822 594.123 620.387 594.131C617.709 594.168 616.224 594.408 614.567 592.803C613.487 583.531 614.289 558.79 614.372 548.379Z" fill="#04264F"/>
</svg>
