<svg width="121" height="48" viewBox="0 0 121 48" fill="none" xmlns="http://www.w3.org/2000/svg">
<g clip-path="url(#clip0_363_117)">
<path d="M85.3945 12.9545C88.7063 12.9545 91.2655 13.8578 93.2227 15.6644C95.1797 17.4707 96.0827 19.8794 96.0827 22.8902V37.342H91.8677V34.0305H91.7171C89.9107 36.7404 87.3514 38.0952 84.3406 38.0952C81.7813 38.0952 79.5232 37.3422 77.7168 35.8371C76.0608 34.3316 75.007 32.2241 75.007 29.966C75.007 27.5572 75.9103 25.6001 77.7168 24.0947C79.5232 22.5893 82.0825 21.9872 85.0933 21.9872C87.803 21.9872 89.9107 22.4389 91.5665 23.4926V22.4389C91.5665 21.0338 91.042 19.6288 89.9928 18.7133L89.7599 18.5248C88.5557 17.4709 87.0503 16.8688 85.3945 16.8688C82.8353 16.8688 80.8782 17.9226 79.5232 20.0302L75.6093 17.6211C78.0178 14.4596 81.1792 12.9545 85.3945 12.9545ZM64.1681 2.71753C66.8693 2.71753 69.4364 3.65753 71.4888 5.41047L71.8458 5.72812C73.9533 7.53471 75.007 10.2446 75.007 13.1048C75.007 15.9651 73.9533 18.5244 71.8458 20.4813C69.7383 22.4382 67.179 23.4921 64.1681 23.4921L56.9423 23.3415V37.342H52.4258V2.71753H64.1681ZM85.9964 25.5999C84.1899 25.5999 82.6846 26.0515 81.4804 26.9547C80.276 27.7073 79.6738 28.7611 79.6738 30.1159C79.6738 31.3204 80.2761 32.374 81.1792 32.9764C82.2331 33.7291 83.4373 34.1806 84.6418 34.1806C86.3277 34.1806 88.0138 33.5248 89.3326 32.3359L89.6095 32.0731C91.115 30.7182 91.8677 29.0622 91.8677 27.2556C90.5128 26.202 88.5557 25.5996 85.9966 25.5996M64.4695 6.93235H56.9425V18.9764H64.4695C66.1253 18.9764 67.7813 18.3742 68.8352 17.17C71.2437 14.9119 71.2437 11.1484 68.9858 8.89L68.8352 8.73941C67.6307 7.53518 66.1253 6.78247 64.4693 6.93306M120.47 13.7072L105.567 47.8801H101.051L106.621 35.9874L96.8354 13.8578H101.653L108.728 30.8688H108.879L115.804 13.8578H120.47V13.7072Z" fill="#5F6368"/>
<path d="M39.0285 20.3311C39.0285 18.9762 38.8779 17.6214 38.7273 16.2666H19.9102V23.9442H30.5984C30.1469 26.3527 28.792 28.6108 26.6845 29.9659V34.9337H33.1577C36.9212 31.4713 39.0287 26.3527 39.0287 20.3313" fill="#4285F4"/>
<path d="M19.9083 39.7511C25.3276 39.7511 29.8438 37.9445 33.1558 34.9337L26.6826 29.9659C24.8761 31.1701 22.6179 31.9228 19.9083 31.9228C14.7897 31.9228 10.2735 28.4605 8.76806 23.6431H2.14453V28.7614C5.60688 35.5358 12.3812 39.7511 19.9083 39.7511Z" fill="#34A853"/>
<path d="M8.76888 23.6432C7.86582 21.2345 7.86582 18.5248 8.76888 15.9655V10.8472H2.14535C-0.715118 16.4173 -0.715118 23.041 2.14535 28.7615L8.76888 23.6432Z" fill="#FBBC04"/>
<path d="M19.9103 7.83631C22.7705 7.83631 25.4802 8.8902 27.5879 10.8471L33.3084 5.12667C29.6952 1.81467 24.8781 -0.142273 20.0606 0.00808011C12.5336 0.00808011 5.60888 4.22337 2.29688 10.9977L8.92064 16.1161C10.2755 11.2987 14.7917 7.83631 19.9103 7.83631Z" fill="#EA4335"/>
</g>
<defs>
<clipPath id="clip0_363_117">
<rect width="120.471" height="48" fill="white"/>
</clipPath>
</defs>
</svg>
